<?xml version="1.0" encoding="UTF-8"?>
<!DOCTYPE svg PUBLIC "-//W3C//DTD SVG 1.1//EN" "http://www.w3.org/Graphics/SVG/1.1/DTD/svg11.dtd">
<svg xmlns="http://www.w3.org/2000/svg" version="1.1" width="256px" height="137px" style="shape-rendering:geometricPrecision; text-rendering:geometricPrecision; image-rendering:optimizeQuality; fill-rule:evenodd; clip-rule:evenodd" xmlns:xlink="http://www.w3.org/1999/xlink">
<g><path style="opacity:0.012" fill="#fcc2c6" d="M 31.5,-0.5 C 32.1667,-0.5 32.8333,-0.5 33.5,-0.5C 32.8333,0.833333 32.1667,0.833333 31.5,-0.5 Z"/></g>
<g><path style="opacity:0.012" fill="#f9afb1" d="M 60.5,-0.5 C 61.5,-0.5 62.5,-0.5 63.5,-0.5C 62.5,0.833333 61.5,0.833333 60.5,-0.5 Z"/></g>
<g><path style="opacity:0.941" fill="#fcbbbf" d="M 38.5,-0.5 C 44.1667,-0.5 49.8333,-0.5 55.5,-0.5C 56.8333,0.166667 58.1667,0.833333 59.5,1.5C 51.9809,1.17503 44.6476,1.50837 37.5,2.5C 33.6576,2.89248 29.9909,3.89248 26.5,5.5C 25.8333,5.5 25.1667,5.5 24.5,5.5C 28.9319,2.91294 33.5985,0.912943 38.5,-0.5 Z"/></g>
<g><path style="opacity:0.01" fill="#f8b4b7" d="M 67.5,2.5 C 68.2506,1.42654 69.2506,1.25988 70.5,2C 69.552,2.48278 68.552,2.64945 67.5,2.5 Z"/></g>
<g><path style="opacity:0.012" fill="#f8a3a3" d="M 71.5,3.5 C 72.2506,2.42654 73.2506,2.25988 74.5,3C 73.552,3.48278 72.552,3.64945 71.5,3.5 Z"/></g>
<g><path style="opacity:0.012" fill="#f8a4a5" d="M 75.5,4.5 C 76.2506,3.42654 77.2506,3.25988 78.5,4C 77.552,4.48278 76.552,4.64945 75.5,4.5 Z"/></g>
<g><path style="opacity:0.012" fill="#f8a9ab" d="M 79.5,5.5 C 80.2506,4.42654 81.2506,4.25988 82.5,5C 81.552,5.48278 80.552,5.64945 79.5,5.5 Z"/></g>
<g><path style="opacity:0.008" fill="#f8a9aa" d="M 83.5,6.5 C 84.2506,5.42654 85.2506,5.25988 86.5,6C 85.552,6.48278 84.552,6.64945 83.5,6.5 Z"/></g>
<g><path style="opacity:0.012" fill="#f6aaab" d="M 90.5,8.5 C 91.2506,7.42654 92.2506,7.25988 93.5,8C 92.552,8.48278 91.552,8.64945 90.5,8.5 Z"/></g>
<g><path style="opacity:0.012" fill="#f6a3a4" d="M 94.5,9.5 C 95.2506,8.42654 96.2506,8.25988 97.5,9C 96.552,9.48278 95.552,9.64945 94.5,9.5 Z"/></g>
<g><path style="opacity:1" fill="#f94d4f" d="M 42.5,5.5 C 48.3188,4.34745 54.3188,4.18079 60.5,5C 64.0145,6.5617 67.6811,7.39504 71.5,7.5C 75.6074,9.03211 79.6074,10.8654 83.5,13C 87.7665,13.1894 91.7665,14.0227 95.5,15.5C 91.1467,15.2354 86.8134,14.7354 82.5,14C 73.0542,11.6993 63.7209,9.0326 54.5,6C 50.5138,5.50115 46.5138,5.33449 42.5,5.5 Z"/></g>
<g><path style="opacity:0.012" fill="#f6abad" d="M 98.5,10.5 C 99.2506,9.42654 100.251,9.25988 101.5,10C 100.552,10.4828 99.552,10.6495 98.5,10.5 Z"/></g>
<g><path style="opacity:0.012" fill="#f6adaf" d="M 102.5,11.5 C 103.251,10.4265 104.251,10.2599 105.5,11C 104.552,11.4828 103.552,11.6495 102.5,11.5 Z"/></g>
<g><path style="opacity:0.514" fill="#f7a5a6" d="M 37.5,2.5 C 44.6476,1.50837 51.9809,1.17503 59.5,1.5C 62.1667,1.83333 64.8333,2.16667 67.5,2.5C 68.5676,3.43448 69.901,3.76781 71.5,3.5C 72.5676,4.43448 73.901,4.76781 75.5,4.5C 76.5676,5.43448 77.901,5.76781 79.5,5.5C 82.8544,7.25759 86.521,8.25759 90.5,8.5C 91.5676,9.43448 92.901,9.76781 94.5,9.5C 95.5676,10.4345 96.901,10.7678 98.5,10.5C 99.5676,11.4345 100.901,11.7678 102.5,11.5C 107.191,13.591 112.191,14.9244 117.5,15.5C 118.568,16.4345 119.901,16.7678 121.5,16.5C 122.568,17.4345 123.901,17.7678 125.5,17.5C 128.854,19.2576 132.521,20.2576 136.5,20.5C 136.5,21.1667 136.833,21.5 137.5,21.5C 137.768,23.099 137.434,24.4324 136.5,25.5C 136.5,24.5 136.5,23.5 136.5,22.5C 132.21,21.5755 127.876,20.9088 123.5,20.5C 121.328,19.1983 118.994,18.0317 116.5,17C 101.463,13.9906 86.4629,10.8239 71.5,7.5C 67.5711,5.16712 63.2378,3.66712 58.5,3C 51.5079,2.50038 44.5079,2.33371 37.5,2.5 Z"/></g>
<g><path style="opacity:0.008" fill="#f6a9ab" d="M 106.5,12.5 C 107.251,11.4265 108.251,11.2599 109.5,12C 108.552,12.4828 107.552,12.6495 106.5,12.5 Z"/></g>
<g><path style="opacity:0.012" fill="#f6a7a9" d="M 110.5,13.5 C 111.251,12.4265 112.251,12.2599 113.5,13C 112.552,13.4828 111.552,13.6495 110.5,13.5 Z"/></g>
<g><path style="opacity:1" fill="#f2bec2" d="M 24.5,5.5 C 16.4215,12.2423 9.42155,19.9089 3.5,28.5C 3.5,27.8333 3.5,27.1667 3.5,26.5C 4.90632,26.0269 5.57298,25.0269 5.5,23.5C 10.539,16.1275 16.8723,10.1275 24.5,5.5 Z"/></g>
<g><path style="opacity:0.996" fill="#f96b6c" d="M 71.5,7.5 C 86.4629,10.8239 101.463,13.9906 116.5,17C 118.994,18.0317 121.328,19.1983 123.5,20.5C 115.835,19.1673 108.168,17.834 100.5,16.5C 98.9582,15.6993 97.2915,15.366 95.5,15.5C 91.7665,14.0227 87.7665,13.1894 83.5,13C 79.6074,10.8654 75.6074,9.03211 71.5,7.5 Z"/></g>
<g><path style="opacity:0.012" fill="#f4a1a2" d="M 117.5,15.5 C 118.251,14.4265 119.251,14.2599 120.5,15C 119.552,15.4828 118.552,15.6495 117.5,15.5 Z"/></g>
<g><path style="opacity:0.996" fill="#ec9c9d" d="M 24.5,5.5 C 25.1667,5.5 25.8333,5.5 26.5,5.5C 21.562,9.93588 16.7287,14.6025 12,19.5C 10.1681,23.2707 8.33473,26.9373 6.5,30.5C 5.73685,32.3684 4.73685,34.0351 3.5,35.5C 3.5,33.5 3.5,31.5 3.5,29.5C 3.5,29.1667 3.5,28.8333 3.5,28.5C 9.42155,19.9089 16.4215,12.2423 24.5,5.5 Z"/></g>
<g><path style="opacity:1" fill="#f9797a" d="M 43.5,9.5 C 44.1667,9.5 44.8333,9.5 45.5,9.5C 49.204,11.7585 50.704,15.0919 50,19.5C 47.0991,20.2367 44.9325,21.9033 43.5,24.5C 38.1946,25.4419 32.8613,25.6086 27.5,25C 24.0532,22.3638 23.5532,19.1971 26,15.5C 30.5231,9.99238 36.3564,7.99238 43.5,9.5 Z"/></g>
<g><path style="opacity:0.012" fill="#f4a7a8" d="M 121.5,16.5 C 122.251,15.4265 123.251,15.2599 124.5,16C 123.552,16.4828 122.552,16.6495 121.5,16.5 Z"/></g>
<g><path style="opacity:0.008" fill="#f69e9f" d="M 125.5,17.5 C 126.251,16.4265 127.251,16.2599 128.5,17C 127.552,17.4828 126.552,17.6495 125.5,17.5 Z"/></g>
<g><path style="opacity:0.996" fill="#ee8687" d="M 37.5,2.5 C 24.3085,7.69076 14.6418,16.6908 8.5,29.5C 7.83333,29.8333 7.16667,30.1667 6.5,30.5C 8.33473,26.9373 10.1681,23.2707 12,19.5C 16.7287,14.6025 21.562,9.93588 26.5,5.5C 29.9909,3.89248 33.6576,2.89248 37.5,2.5 Z"/></g>
<g><path style="opacity:0.008" fill="#f59d9d" d="M 129.5,18.5 C 130.251,17.4265 131.251,17.2599 132.5,18C 131.552,18.4828 130.552,18.6495 129.5,18.5 Z"/></g>
<g><path style="opacity:1" fill="#f36769" d="M 37.5,2.5 C 44.5079,2.33371 51.5079,2.50038 58.5,3C 63.2378,3.66712 67.5711,5.16712 71.5,7.5C 67.6811,7.39504 64.0145,6.5617 60.5,5C 54.3188,4.18079 48.3188,4.34745 42.5,5.5C 40.6536,5.22216 39.3202,5.88882 38.5,7.5C 40.2914,8.16985 41.9581,8.83652 43.5,9.5C 36.3564,7.99238 30.5231,9.99238 26,15.5C 23.5532,19.1971 24.0532,22.3638 27.5,25C 32.8613,25.6086 38.1946,25.4419 43.5,24.5C 43.3893,25.1174 43.056,25.6174 42.5,26C 36.8041,26.8299 31.1375,26.6632 25.5,25.5C 23.3187,22.737 22.9854,19.737 24.5,16.5C 24,16.1667 23.5,15.8333 23,15.5C 20.0488,17.4474 17.3822,19.7807 15,22.5C 11.8311,25.7344 9.66443,29.4011 8.5,33.5C 8.5,32.1667 8.5,30.8333 8.5,29.5C 14.6418,16.6908 24.3085,7.69076 37.5,2.5 Z"/></g>
<g><path style="opacity:1" fill="#fd999a" d="M 33.5,10.5 C 36.8499,10.335 40.1832,10.5017 43.5,11C 46.0867,12.5251 46.9201,14.6917 46,17.5C 41.0013,23.2803 34.8346,24.947 27.5,22.5C 26.4798,20.5675 26.3131,18.5675 27,16.5C 29.3353,14.5998 31.502,12.5998 33.5,10.5 Z"/></g>
<g><path style="opacity:0.006" fill="#f5a0a1" d="M 136.5,19.5 C 135.448,19.6495 134.448,19.4828 133.5,19C 134.749,18.2599 135.749,18.4265 136.5,19.5 Z"/></g>
<g><path style="opacity:0.996" fill="#f85556" d="M 100.5,16.5 C 108.168,17.834 115.835,19.1673 123.5,20.5C 127.876,20.9088 132.21,21.5755 136.5,22.5C 136.5,23.5 136.5,24.5 136.5,25.5C 136.5,26.1667 136.5,26.8333 136.5,27.5C 136.167,27.5 135.833,27.5 135.5,27.5C 135.03,26.3065 134.03,25.6399 132.5,25.5C 121.644,22.7892 110.978,19.7892 100.5,16.5 Z"/></g>
<g><path style="opacity:0.004" fill="#dc9f9f" d="M 136.5,19.5 C 137.833,20.1667 137.833,20.1667 136.5,19.5 Z"/></g>
<g><path style="opacity:0.008" fill="#e8b6ba" d="M 5.5,23.5 C 5.16667,23.5 4.83333,23.5 4.5,23.5C 4.83333,20.8333 5.16667,20.8333 5.5,23.5 Z"/></g>
<g><path style="opacity:0.008" fill="#f1f0f7" d="M 139.5,23.5 C 140.251,22.4265 141.251,22.2599 142.5,23C 141.552,23.4828 140.552,23.6495 139.5,23.5 Z"/></g>
<g><path style="opacity:0.012" fill="#ecc7cb" d="M 4.5,23.5 C 3.83333,24.1667 3.83333,24.1667 4.5,23.5 Z"/></g>
<g><path style="opacity:0.012" fill="#f2f6fe" d="M 143.5,24.5 C 144.251,23.4265 145.251,23.2599 146.5,24C 145.552,24.4828 144.552,24.6495 143.5,24.5 Z"/></g>
<g><path style="opacity:1" fill="#f83636" d="M 42.5,5.5 C 46.5138,5.33449 50.5138,5.50115 54.5,6C 63.7209,9.0326 73.0542,11.6993 82.5,14C 86.8134,14.7354 91.1467,15.2354 95.5,15.5C 97.2915,15.366 98.9582,15.6993 100.5,16.5C 110.978,19.7892 121.644,22.7892 132.5,25.5C 134.03,25.6399 135.03,26.3065 135.5,27.5C 134.833,31.5 134.167,35.5 133.5,39.5C 132.232,41.9052 131.565,44.5718 131.5,47.5C 131.167,47.5 130.833,47.5 130.5,47.5C 130.5,46.8333 130.167,46.5 129.5,46.5C 129.833,45.8333 130.167,45.1667 130.5,44.5C 131.803,40.6179 132.47,36.6179 132.5,32.5C 115.547,28.1786 98.5475,24.0119 81.5,20C 72.2226,16.1691 62.5559,13.5024 52.5,12C 49.1887,9.55079 45.8554,7.38413 42.5,5.5 Z"/></g>
<g><path style="opacity:0.976" fill="#f1f6fe" d="M 137.5,21.5 C 138.404,22.209 138.737,23.209 138.5,24.5C 142.5,25.1667 146.5,25.8333 150.5,26.5C 151.568,27.4345 152.901,27.7678 154.5,27.5C 155.568,28.4345 156.901,28.7678 158.5,28.5C 159.568,29.4345 160.901,29.7678 162.5,29.5C 168.526,31.9244 174.859,33.5911 181.5,34.5C 182.568,35.4345 183.901,35.7678 185.5,35.5C 190.191,37.591 195.191,38.9244 200.5,39.5C 201.568,40.4345 202.901,40.7678 204.5,40.5C 205.568,41.4345 206.901,41.7678 208.5,41.5C 209.568,42.4345 210.901,42.7678 212.5,42.5C 214.515,43.9238 216.848,44.5905 219.5,44.5C 220.568,45.4345 221.901,45.7678 223.5,45.5C 224.167,46.1667 224.833,46.8333 225.5,47.5C 224.761,47.369 224.094,47.5357 223.5,48C 228.929,53.9819 227.763,58.4819 220,61.5C 191.889,56.9793 163.889,50.9793 136,43.5C 135.505,41.5273 135.338,39.5273 135.5,37.5C 136.479,34.3752 136.813,31.0419 136.5,27.5C 136.5,26.8333 136.5,26.1667 136.5,25.5C 137.434,24.4324 137.768,23.099 137.5,21.5 Z"/></g>
<g><path style="opacity:0.012" fill="#e8b9bb" d="M 3.5,26.5 C 2.83333,25.1667 2.83333,25.1667 3.5,26.5 Z"/></g>
<g><path style="opacity:0.012" fill="#f1f5fe" d="M 150.5,26.5 C 151.251,25.4265 152.251,25.2599 153.5,26C 152.552,26.4828 151.552,26.6495 150.5,26.5 Z"/></g>
<g><path style="opacity:0.016" fill="#f0f4fe" d="M 154.5,27.5 C 155.251,26.4265 156.251,26.2599 157.5,27C 156.552,27.4828 155.552,27.6495 154.5,27.5 Z"/></g>
<g><path style="opacity:1" fill="#f76366" d="M 45.5,9.5 C 46.552,9.35055 47.552,9.51722 48.5,10C 50.208,12.0435 52.208,13.7101 54.5,15C 64.082,18.4172 73.7486,21.4172 83.5,24C 86.6455,28.2166 85.4788,30.0499 80,29.5C 67.7951,27.8816 55.6284,26.2149 43.5,24.5C 44.9325,21.9033 47.0991,20.2367 50,19.5C 50.704,15.0919 49.204,11.7585 45.5,9.5 Z"/></g>
<g><path style="opacity:0.999" fill="#f5fafe" d="M 139.5,27.5 C 161.21,31.7898 182.544,37.6231 203.5,45C 202.5,45.3333 201.5,45.6667 200.5,46C 203.993,46.9419 207.326,48.2752 210.5,50C 204.022,50.4056 197.689,49.5723 191.5,47.5C 191.511,48.4415 191.011,49.1081 190,49.5C 183.213,47.5581 176.38,46.8914 169.5,47.5C 158.636,45.946 148.136,43.2793 138,39.5C 137.19,35.3105 137.69,31.3105 139.5,27.5 Z"/></g>
<g><path style="opacity:0.008" fill="#f0f5fe" d="M 158.5,28.5 C 159.251,27.4265 160.251,27.2599 161.5,28C 160.552,28.4828 159.552,28.6495 158.5,28.5 Z"/></g>
<g><path style="opacity:0.012" fill="#f1f6fe" d="M 162.5,29.5 C 163.251,28.4265 164.251,28.2599 165.5,29C 164.552,29.4828 163.552,29.6495 162.5,29.5 Z"/></g>
<g><path style="opacity:0.012" fill="#f1f5fe" d="M 166.5,30.5 C 167.251,29.4265 168.251,29.2599 169.5,30C 168.552,30.4828 167.552,30.6495 166.5,30.5 Z"/></g>
<g><path style="opacity:0.012" fill="#e3b4b7" d="M -0.5,31.5 C 0.403972,32.209 0.737305,33.209 0.5,34.5C 0.166667,34.5 -0.166667,34.5 -0.5,34.5C -0.5,33.5 -0.5,32.5 -0.5,31.5 Z"/></g>
<g><path style="opacity:1" fill="#f6575a" d="M 42.5,5.5 C 45.8554,7.38413 49.1887,9.55079 52.5,12C 62.5559,13.5024 72.2226,16.1691 81.5,20C 98.5475,24.0119 115.547,28.1786 132.5,32.5C 132.47,36.6179 131.803,40.6179 130.5,44.5C 104.061,39.5787 77.7275,34.0787 51.5,28C 42.8071,28.6396 34.1404,28.473 25.5,27.5C 23.5349,25.3716 21.3682,23.3716 19,21.5C 15.9279,23.3095 14.0946,25.9762 13.5,29.5C 11.1023,32.5712 9.10229,35.9046 7.5,39.5C 7.51715,37.4352 7.85048,35.4352 8.5,33.5C 9.66443,29.4011 11.8311,25.7344 15,22.5C 17.3822,19.7807 20.0488,17.4474 23,15.5C 23.5,15.8333 24,16.1667 24.5,16.5C 22.9854,19.737 23.3187,22.737 25.5,25.5C 31.1375,26.6632 36.8041,26.8299 42.5,26C 43.056,25.6174 43.3893,25.1174 43.5,24.5C 55.6284,26.2149 67.7951,27.8816 80,29.5C 85.4788,30.0499 86.6455,28.2166 83.5,24C 73.7486,21.4172 64.082,18.4172 54.5,15C 52.208,13.7101 50.208,12.0435 48.5,10C 47.552,9.51722 46.552,9.35055 45.5,9.5C 44.8333,9.5 44.1667,9.5 43.5,9.5C 41.9581,8.83652 40.2914,8.16985 38.5,7.5C 39.3202,5.88882 40.6536,5.22216 42.5,5.5 Z"/></g>
<g><path style="opacity:1" fill="#ed4245" d="M 25.5,27.5 C 34.1404,28.473 42.8071,28.6396 51.5,28C 77.7275,34.0787 104.061,39.5787 130.5,44.5C 130.167,45.1667 129.833,45.8333 129.5,46.5C 121.985,45.2879 114.652,43.4546 107.5,41C 94.0891,40.2754 81.0891,37.6087 68.5,33C 54.6424,30.2787 40.6424,28.9454 26.5,29C 25.944,28.6174 25.6107,28.1174 25.5,27.5 Z"/></g>
<g><path style="opacity:0.01" fill="#f0f4fe" d="M 181.5,34.5 C 182.251,33.4265 183.251,33.2599 184.5,34C 183.552,34.4828 182.552,34.6495 181.5,34.5 Z"/></g>
<g><path style="opacity:0.012" fill="#f0f4fe" d="M 185.5,35.5 C 186.251,34.4265 187.251,34.2599 188.5,35C 187.552,35.4828 186.552,35.6495 185.5,35.5 Z"/></g>
<g><path style="opacity:0.008" fill="#f0f4fd" d="M 189.5,36.5 C 190.251,35.4265 191.251,35.2599 192.5,36C 191.552,36.4828 190.552,36.6495 189.5,36.5 Z"/></g>
<g><path style="opacity:1" fill="#cd6b6d" d="M 8.5,29.5 C 8.5,30.8333 8.5,32.1667 8.5,33.5C 7.85048,35.4352 7.51715,37.4352 7.5,39.5C 6.88258,39.6107 6.38258,39.944 6,40.5C 4.71326,48.7805 4.21326,57.1139 4.5,65.5C 3.73209,64.7375 3.23209,63.7375 3,62.5C 0.973354,53.352 1.14002,44.352 3.5,35.5C 4.73685,34.0351 5.73685,32.3684 6.5,30.5C 7.16667,30.1667 7.83333,29.8333 8.5,29.5 Z"/></g>
<g><path style="opacity:1" fill="#e62d2f" d="M 25.5,27.5 C 25.6107,28.1174 25.944,28.6174 26.5,29C 40.6424,28.9454 54.6424,30.2787 68.5,33C 81.0891,37.6087 94.0891,40.2754 107.5,41C 114.652,43.4546 121.985,45.2879 129.5,46.5C 130.167,46.5 130.5,46.8333 130.5,47.5C 129.341,52.4678 128.341,57.4678 127.5,62.5C 126.662,62.8417 126.328,63.5084 126.5,64.5C 126.167,64.5 125.833,64.5 125.5,64.5C 125.5,63.8333 125.5,63.1667 125.5,62.5C 126.038,60.8828 126.371,59.2161 126.5,57.5C 121.367,57.9213 116.534,56.9213 112,54.5C 109.119,56.1507 106.952,55.484 105.5,52.5C 101.833,51 98.1667,49.5 94.5,48C 76.7707,43.8223 59.104,39.3223 41.5,34.5C 39.9623,34.4534 38.9623,35.1201 38.5,36.5C 37.8333,36.5 37.1667,36.5 36.5,36.5C 36.4208,35.0695 36.7542,33.7362 37.5,32.5C 36.6667,32.1667 35.8333,31.8333 35,31.5C 31.3216,31.1695 27.4883,31.1695 23.5,31.5C 23.5,30.5 23.5,29.5 23.5,28.5C 20.0071,27.1061 16.6738,27.4394 13.5,29.5C 14.0946,25.9762 15.9279,23.3095 19,21.5C 21.3682,23.3716 23.5349,25.3716 25.5,27.5 Z"/></g>
<g><path style="opacity:0.006" fill="#f0f4fd" d="M 193.5,37.5 C 194.251,36.4265 195.251,36.2599 196.5,37C 195.552,37.4828 194.552,37.6495 193.5,37.5 Z"/></g>
<g><path style="opacity:0.012" fill="#edf1fc" d="M 200.5,39.5 C 201.251,38.4265 202.251,38.2599 203.5,39C 202.552,39.4828 201.552,39.6495 200.5,39.5 Z"/></g>
<g><path style="opacity:0.012" fill="#eef1fc" d="M 204.5,40.5 C 205.251,39.4265 206.251,39.2599 207.5,40C 206.552,40.4828 205.552,40.6495 204.5,40.5 Z"/></g>
<g><path style="opacity:0.008" fill="#eef2fc" d="M 208.5,41.5 C 209.251,40.4265 210.251,40.2599 211.5,41C 210.552,41.4828 209.552,41.6495 208.5,41.5 Z"/></g>
<g><path style="opacity:0.012" fill="#eef2fc" d="M 212.5,42.5 C 213.251,41.4265 214.251,41.2599 215.5,42C 214.552,42.4828 213.552,42.6495 212.5,42.5 Z"/></g>
<g><path style="opacity:1" fill="#e8e9f4" d="M 135.5,27.5 C 135.833,27.5 136.167,27.5 136.5,27.5C 136.813,31.0419 136.479,34.3752 135.5,37.5C 134.362,40.3035 134.195,43.3035 135,46.5C 135.75,47.1258 136.584,47.6258 137.5,48C 164.989,54.9555 192.656,61.1222 220.5,66.5C 225.241,65.2783 229.074,62.6116 232,58.5C 232.833,53.83 231,50.6634 226.5,49C 227.094,48.5357 227.761,48.369 228.5,48.5C 229.833,48.8333 231.167,49.1667 232.5,49.5C 232.833,50.1667 233.167,50.8333 233.5,51.5C 233.062,51.4346 232.728,51.6012 232.5,52C 236.417,54.8336 237.251,58.3336 235,62.5C 230.933,66.6155 226.1,69.2822 220.5,70.5C 191.989,65.1643 163.655,58.9977 135.5,52C 135,51.5 134.5,51 134,50.5C 133.501,46.8484 133.335,43.1817 133.5,39.5C 134.167,35.5 134.833,31.5 135.5,27.5 Z"/></g>
<g><path style="opacity:0.008" fill="#eff2fc" d="M 219.5,43.5 C 218.448,43.6495 217.448,43.4828 216.5,43C 217.749,42.2599 218.749,42.4265 219.5,43.5 Z"/></g>
<g><path style="opacity:0.012" fill="#ecf0fc" d="M 219.5,44.5 C 219.5,44.1667 219.5,43.8333 219.5,43.5C 223.5,43.8333 223.5,44.1667 219.5,44.5 Z"/></g>
<g><path style="opacity:0.008" fill="#edf0fa" d="M 223.5,45.5 C 223.897,44.475 224.563,44.3083 225.5,45C 224.906,45.4643 224.239,45.631 223.5,45.5 Z"/></g>
<g><path style="opacity:0.997" fill="#e1e2ed" d="M 133.5,39.5 C 133.335,43.1817 133.501,46.8484 134,50.5C 134.5,51 135,51.5 135.5,52C 163.655,58.9977 191.989,65.1643 220.5,70.5C 226.1,69.2822 230.933,66.6155 235,62.5C 237.251,58.3336 236.417,54.8336 232.5,52C 232.728,51.6012 233.062,51.4346 233.5,51.5C 237.704,53.0332 241.037,55.6998 243.5,59.5C 242.826,63.3534 241.159,66.8534 238.5,70C 231.977,74.3448 224.81,76.8448 217,77.5C 188.858,72.6714 161.024,66.5047 133.5,59C 132.391,57.1239 131.391,55.2905 130.5,53.5C 131.15,51.5648 131.483,49.5648 131.5,47.5C 131.565,44.5718 132.232,41.9052 133.5,39.5 Z"/></g>
<g><path style="opacity:1" fill="#ecf0fb" d="M 135.5,37.5 C 135.338,39.5273 135.505,41.5273 136,43.5C 163.889,50.9793 191.889,56.9793 220,61.5C 227.763,58.4819 228.929,53.9819 223.5,48C 224.094,47.5357 224.761,47.369 225.5,47.5C 226.791,47.2627 227.791,47.596 228.5,48.5C 227.761,48.369 227.094,48.5357 226.5,49C 231,50.6634 232.833,53.83 232,58.5C 229.074,62.6116 225.241,65.2783 220.5,66.5C 192.656,61.1222 164.989,54.9555 137.5,48C 136.584,47.6258 135.75,47.1258 135,46.5C 134.195,43.3035 134.362,40.3035 135.5,37.5 Z"/></g>
<g><path style="opacity:0.004" fill="#eceef9" d="M 226.5,46.5 C 226.897,45.475 227.563,45.3083 228.5,46C 227.906,46.4643 227.239,46.631 226.5,46.5 Z"/></g>
<g><path style="opacity:1" fill="#d21d1e" d="M 36.5,36.5 C 33.5235,39.7728 33.8569,42.6061 37.5,45C 46.7275,48.3414 56.2275,50.508 66,51.5C 71.4669,54.3282 77.3002,56.1615 83.5,57C 84.056,57.3826 84.3893,57.8826 84.5,58.5C 75.1242,56.9905 65.7909,55.1572 56.5,53C 47.596,49.954 38.596,47.2873 29.5,45C 26.872,42.9394 26.2054,40.4394 27.5,37.5C 27,36.5 26.5,35.5 26,34.5C 22.3196,33.5997 18.8196,32.2663 15.5,30.5C 11.8124,35.2071 9.81241,40.5405 9.5,46.5C 8.52333,49.2869 8.19,52.2869 8.5,55.5C 7.83333,55.8333 7.16667,56.1667 6.5,56.5C 6.44701,50.8044 6.78034,45.1377 7.5,39.5C 9.10229,35.9046 11.1023,32.5712 13.5,29.5C 16.6738,27.4394 20.0071,27.1061 23.5,28.5C 23.5,29.5 23.5,30.5 23.5,31.5C 27.4883,31.1695 31.3216,31.1695 35,31.5C 35.8333,31.8333 36.6667,32.1667 37.5,32.5C 36.7542,33.7362 36.4208,35.0695 36.5,36.5 Z"/></g>
<g><path style="opacity:1" fill="#d52b2d" d="M 36.5,36.5 C 37.1667,36.5 37.8333,36.5 38.5,36.5C 37.5269,38.0683 37.3603,39.735 38,41.5C 40.5807,43.5158 43.4141,45.0158 46.5,46C 58.7653,46.2301 70.0986,49.2301 80.5,55C 93.5757,57.1002 106.576,59.9336 119.5,63.5C 121.425,63.4096 122.592,62.4096 123,60.5C 123.708,61.3805 124.542,62.0472 125.5,62.5C 125.5,63.1667 125.5,63.8333 125.5,64.5C 124.739,65.3909 123.739,66.0576 122.5,66.5C 110.204,62.2609 97.5378,59.5943 84.5,58.5C 84.3893,57.8826 84.056,57.3826 83.5,57C 77.3002,56.1615 71.4669,54.3282 66,51.5C 56.2275,50.508 46.7275,48.3414 37.5,45C 33.8569,42.6061 33.5235,39.7728 36.5,36.5 Z"/></g>
<g><path style="opacity:0.012" fill="#e5e8f2" d="M 232.5,48.5 C 233.833,49.1667 233.833,49.1667 232.5,48.5 Z"/></g>
<g><path style="opacity:1" fill="#c00000" d="M 124.5,70.5 C 124.5,71.5 124.5,72.5 124.5,73.5C 122.974,74.1047 121.974,75.2714 121.5,77C 92.9679,71.1172 64.6346,64.1172 36.5,56C 28.5374,54.506 20.5374,53.3393 12.5,52.5C 12.6395,48.8893 14.3062,46.2226 17.5,44.5C 21.8051,49.6617 27.1385,51.3283 33.5,49.5C 63.4162,56.3961 93.0829,63.7294 122.5,71.5C 123.251,70.624 123.751,69.624 124,68.5C 124.464,69.0944 124.631,69.7611 124.5,70.5 Z"/></g>
<g><path style="opacity:0.008" fill="#e7e9f3" d="M 234.5,49.5 C 235.833,50.1667 235.833,50.1667 234.5,49.5 Z"/></g>
<g><path style="opacity:0.778" fill="#d0a9ac" d="M 3.5,29.5 C 3.5,31.5 3.5,33.5 3.5,35.5C 1.14002,44.352 0.973354,53.352 3,62.5C 3.23209,63.7375 3.73209,64.7375 4.5,65.5C 4.5,66.1667 4.5,66.8333 4.5,67.5C 4.5,68.5 4.5,69.5 4.5,70.5C 4.16667,70.5 3.83333,70.5 3.5,70.5C 3.67158,69.5084 3.33825,68.8417 2.5,68.5C 2.73731,67.209 2.40397,66.209 1.5,65.5C 1.73731,64.209 1.40397,63.209 0.5,62.5C 0.767809,60.901 0.434475,59.5676 -0.5,58.5C -0.5,51.8333 -0.5,45.1667 -0.5,38.5C 0.434475,37.4324 0.767809,36.099 0.5,34.5C 1.31271,32.7392 2.31271,31.0725 3.5,29.5 Z"/></g>
<g><path style="opacity:1" fill="#b40101" d="M 9.5,46.5 C 10.0271,49.2314 10.8604,51.8981 12,54.5C 12.4643,53.9056 12.631,53.2389 12.5,52.5C 20.5374,53.3393 28.5374,54.506 36.5,56C 64.6346,64.1172 92.9679,71.1172 121.5,77C 121.974,75.2714 122.974,74.1047 124.5,73.5C 124.5,74.1667 124.5,74.8333 124.5,75.5C 123.542,77.3024 122.875,79.3024 122.5,81.5C 121.833,81.5 121.5,81.8333 121.5,82.5C 119.598,83.5109 117.598,83.6776 115.5,83C 88.8382,76.0012 62.1716,69.0012 35.5,62C 27.2558,60.2611 18.9225,59.4278 10.5,59.5C 8.82351,58.8166 8.15684,57.4832 8.5,55.5C 8.19,52.2869 8.52333,49.2869 9.5,46.5 Z"/></g>
<g><path style="opacity:1" fill="#d8d8e2" d="M 130.5,53.5 C 131.391,55.2905 132.391,57.1239 133.5,59C 161.024,66.5047 188.858,72.6714 217,77.5C 224.81,76.8448 231.977,74.3448 238.5,70C 241.159,66.8534 242.826,63.3534 243.5,59.5C 244.5,60.1667 245.5,60.8333 246.5,61.5C 246.5,62.1667 246.5,62.8333 246.5,63.5C 246.651,68.61 244.651,72.7767 240.5,76C 232.815,80.2283 224.648,83.0616 216,84.5C 188.242,78.6809 160.408,72.8476 132.5,67C 131.663,65.9887 131.33,64.8221 131.5,63.5C 130.676,60.2356 130.342,56.9023 130.5,53.5 Z"/></g>
<g><path style="opacity:1" fill="#dc3c3f" d="M 125.5,62.5 C 124.542,62.0472 123.708,61.3805 123,60.5C 122.592,62.4096 121.425,63.4096 119.5,63.5C 106.576,59.9336 93.5757,57.1002 80.5,55C 70.0986,49.2301 58.7653,46.2301 46.5,46C 43.4141,45.0158 40.5807,43.5158 38,41.5C 37.3603,39.735 37.5269,38.0683 38.5,36.5C 38.9623,35.1201 39.9623,34.4534 41.5,34.5C 59.104,39.3223 76.7707,43.8223 94.5,48C 98.1667,49.5 101.833,51 105.5,52.5C 106.952,55.484 109.119,56.1507 112,54.5C 116.534,56.9213 121.367,57.9213 126.5,57.5C 126.371,59.2161 126.038,60.8828 125.5,62.5 Z"/></g>
<g><path style="opacity:0.012" fill="#d8d8e1" d="M 247.5,61.5 C 246.833,60.1667 246.833,60.1667 247.5,61.5 Z"/></g>
<g><path style="opacity:0.008" fill="#dbdae3" d="M 247.5,61.5 C 248.833,62.1667 248.833,62.1667 247.5,61.5 Z"/></g>
<g><path style="opacity:1" fill="#a70000" d="M 10.5,59.5 C 18.9225,59.4278 27.2558,60.2611 35.5,62C 62.1716,69.0012 88.8382,76.0012 115.5,83C 117.598,83.6776 119.598,83.5109 121.5,82.5C 121.007,84.8056 120.674,87.139 120.5,89.5C 120.167,89.5 119.833,89.5 119.5,89.5C 90.5084,82.0669 61.5084,74.5669 32.5,67C 25.8085,66.8309 19.1419,66.3309 12.5,65.5C 11.6279,63.5504 10.9612,61.5504 10.5,59.5 Z"/></g>
<g><path style="opacity:1" fill="#cc0e0f" d="M 84.5,58.5 C 97.5378,59.5943 110.204,62.2609 122.5,66.5C 123.739,66.0576 124.739,65.3909 125.5,64.5C 125.833,64.5 126.167,64.5 126.5,64.5C 125.85,66.4352 125.517,68.4352 125.5,70.5C 125.167,70.5 124.833,70.5 124.5,70.5C 124.631,69.7611 124.464,69.0944 124,68.5C 123.751,69.624 123.251,70.624 122.5,71.5C 93.0829,63.7294 63.4162,56.3961 33.5,49.5C 27.1385,51.3283 21.8051,49.6617 17.5,44.5C 14.3062,46.2226 12.6395,48.8893 12.5,52.5C 12.631,53.2389 12.4643,53.9056 12,54.5C 10.8604,51.8981 10.0271,49.2314 9.5,46.5C 9.81241,40.5405 11.8124,35.2071 15.5,30.5C 18.8196,32.2663 22.3196,33.5997 26,34.5C 26.5,35.5 27,36.5 27.5,37.5C 26.2054,40.4394 26.872,42.9394 29.5,45C 38.596,47.2873 47.596,49.954 56.5,53C 65.7909,55.1572 75.1242,56.9905 84.5,58.5 Z"/></g>
<g><path style="opacity:0.012" fill="#bb9495" d="M -0.5,62.5 C -0.166667,62.5 0.166667,62.5 0.5,62.5C 0.5,63.5 0.5,64.5 0.5,65.5C 0.166667,65.5 -0.166667,65.5 -0.5,65.5C -0.5,64.5 -0.5,63.5 -0.5,62.5 Z"/></g>
<g><path style="opacity:0.016" fill="#d1d0d9" d="M 249.5,64.5 C 248.833,63.1667 248.833,63.1667 249.5,64.5 Z"/></g>
<g><path style="opacity:0.008" fill="#d6d5dd" d="M 249.5,64.5 C 250.833,65.1667 250.833,65.1667 249.5,64.5 Z"/></g>
<g><path style="opacity:0.012" fill="#bc9699" d="M 0.5,65.5 C 0.833333,65.5 1.16667,65.5 1.5,65.5C 1.5,66.5 1.5,67.5 1.5,68.5C 0.596028,67.791 0.262695,66.791 0.5,65.5 Z"/></g>
<g><path style="opacity:1" fill="#aa2f32" d="M 7.5,39.5 C 6.78034,45.1377 6.44701,50.8044 6.5,56.5C 6.32274,60.2343 6.65608,63.9009 7.5,67.5C 8.42889,70.4119 9.76222,73.0786 11.5,75.5C 10.609,74.8902 9.60895,74.5569 8.5,74.5C 7.40425,71.9684 6.07092,69.6351 4.5,67.5C 4.5,66.8333 4.5,66.1667 4.5,65.5C 4.21326,57.1139 4.71326,48.7805 6,40.5C 6.38258,39.944 6.88258,39.6107 7.5,39.5 Z"/></g>
<g><path style="opacity:1" fill="#c9c5cd" d="M 130.5,47.5 C 130.833,47.5 131.167,47.5 131.5,47.5C 131.483,49.5648 131.15,51.5648 130.5,53.5C 130.342,56.9023 130.676,60.2356 131.5,63.5C 129.656,64.2039 129.156,65.5372 130,67.5C 131.8,69.317 133.966,70.4837 136.5,71C 162.522,77.5476 188.689,83.3809 215,88.5C 222.672,87.3735 230.172,85.5402 237.5,83C 240.418,81.2912 243.252,79.4579 246,77.5C 247.75,74.7536 248.75,71.7536 249,68.5C 249.383,69.056 249.883,69.3893 250.5,69.5C 251.5,70.8333 252.5,72.1667 253.5,73.5C 253.263,74.791 253.596,75.791 254.5,76.5C 254.5,77.1667 254.5,77.8333 254.5,78.5C 253.142,77.3744 251.808,77.3744 250.5,78.5C 247.914,83.8662 243.914,87.6996 238.5,90C 228.512,94.02 218.179,95.3533 207.5,94C 181.197,87.8409 154.864,81.8409 128.5,76C 127.62,74.6439 127.286,73.1439 127.5,71.5C 129.226,71.8146 130.893,71.9813 132.5,72C 129.234,69.7219 127.568,66.5552 127.5,62.5C 128.341,57.4678 129.341,52.4678 130.5,47.5 Z"/></g>
<g><path style="opacity:0.004" fill="#c3a5a9" d="M 1.5,68.5 C 1.83333,68.5 2.16667,68.5 2.5,68.5C 2.5,69.1667 2.5,69.8333 2.5,70.5C 1.66175,70.1583 1.32842,69.4916 1.5,68.5 Z"/></g>
<g><path style="opacity:1" fill="#9b0101" d="M 8.5,55.5 C 8.15684,57.4832 8.82351,58.8166 10.5,59.5C 10.9612,61.5504 11.6279,63.5504 12.5,65.5C 19.1419,66.3309 25.8085,66.8309 32.5,67C 61.5084,74.5669 90.5084,82.0669 119.5,89.5C 119.634,91.2915 119.301,92.9582 118.5,94.5C 115.927,95.5552 113.261,95.7218 110.5,95C 85.8431,88.669 61.1764,82.3357 36.5,76C 31.5111,75.5007 26.5111,75.3341 21.5,75.5C 18.9205,74.7724 16.2538,74.2724 13.5,74C 11.951,71.2893 9.95102,69.1226 7.5,67.5C 6.65608,63.9009 6.32274,60.2343 6.5,56.5C 7.16667,56.1667 7.83333,55.8333 8.5,55.5 Z"/></g>
<g><path style="opacity:0.004" fill="#c1a3a7" d="M 2.5,70.5 C 2.83333,70.5 3.16667,70.5 3.5,70.5C 3.5,71.1667 3.5,71.8333 3.5,72.5C 2.66175,72.1583 2.32842,71.4916 2.5,70.5 Z"/></g>
<g><path style="opacity:0.012" fill="#b48e8f" d="M 3.5,72.5 C 3.83333,72.5 4.16667,72.5 4.5,72.5C 4.31468,73.1701 3.98135,73.1701 3.5,72.5 Z"/></g>
<g><path style="opacity:0.012" fill="#c9c6ce" d="M 253.5,73.5 C 253.369,72.7611 253.536,72.0944 254,71.5C 254.692,72.4368 254.525,73.1034 253.5,73.5 Z"/></g>
<g><path style="opacity:1" fill="#d1cfd9" d="M 131.5,63.5 C 131.33,64.8221 131.663,65.9887 132.5,67C 160.408,72.8476 188.242,78.6809 216,84.5C 224.648,83.0616 232.815,80.2283 240.5,76C 244.651,72.7767 246.651,68.61 246.5,63.5C 247.167,63.8333 247.833,64.1667 248.5,64.5C 249.167,66.1667 249.833,67.8333 250.5,69.5C 249.883,69.3893 249.383,69.056 249,68.5C 248.75,71.7536 247.75,74.7536 246,77.5C 243.252,79.4579 240.418,81.2912 237.5,83C 230.172,85.5402 222.672,87.3735 215,88.5C 188.689,83.3809 162.522,77.5476 136.5,71C 133.966,70.4837 131.8,69.317 130,67.5C 129.156,65.5372 129.656,64.2039 131.5,63.5 Z"/></g>
<g><path style="opacity:1" fill="#920000" d="M 21.5,75.5 C 26.5111,75.3341 31.5111,75.5007 36.5,76C 61.1764,82.3357 85.8431,88.669 110.5,95C 113.261,95.7218 115.927,95.5552 118.5,94.5C 118.5,95.5 118.5,96.5 118.5,97.5C 117.833,98.5 117.167,99.5 116.5,100.5C 89.4143,94.4788 62.4143,87.9788 35.5,81C 33.1902,80.5034 30.8568,80.3367 28.5,80.5C 25.6298,79.5667 23.2964,77.9 21.5,75.5 Z"/></g>
<g><path style="opacity:0.012" fill="#c3c0c7" d="M 255.5,74.5 C 255.5,75.1667 255.5,75.8333 255.5,76.5C 255.167,76.5 254.833,76.5 254.5,76.5C 254.328,75.5084 254.662,74.8417 255.5,74.5 Z"/></g>
<g><path style="opacity:0.004" fill="#b1878b" d="M 6.5,75.5 C 6.63101,76.2389 6.46434,76.9056 6,77.5C 5.30831,76.5632 5.47498,75.8966 6.5,75.5 Z"/></g>
<g><path style="opacity:1" fill="#b2adb4" d="M 124.5,70.5 C 124.833,70.5 125.167,70.5 125.5,70.5C 125.575,74.5966 127.242,77.7632 130.5,80C 156.05,86.8043 181.717,93.1376 207.5,99C 222.652,100.378 236.652,97.045 249.5,89C 250.956,87.2552 252.289,85.4219 253.5,83.5C 254.183,83.8627 254.85,84.1961 255.5,84.5C 255.5,89.8333 255.5,95.1667 255.5,100.5C 254.566,101.568 254.232,102.901 254.5,104.5C 253.596,105.209 253.263,106.209 253.5,107.5C 253.167,107.5 252.833,107.5 252.5,107.5C 252.5,106.167 252.5,104.833 252.5,103.5C 253.451,102.081 253.784,100.415 253.5,98.5C 254.797,96.3066 254.797,93.9732 253.5,91.5C 240.482,102.012 225.482,106.512 208.5,105C 181.654,98.6221 154.988,91.6221 128.5,84C 125.179,82.1881 123.845,79.3547 124.5,75.5C 124.5,74.8333 124.5,74.1667 124.5,73.5C 124.5,72.5 124.5,71.5 124.5,70.5 Z"/></g>
<g><path style="opacity:0.404" fill="#b08184" d="M 4.5,67.5 C 6.07092,69.6351 7.40425,71.9684 8.5,74.5C 10.8586,77.8514 13.1919,81.1847 15.5,84.5C 14.7611,84.631 14.0944,84.4643 13.5,84C 11.3024,80.9772 8.96904,78.1438 6.5,75.5C 6.06795,74.2905 5.40128,73.2905 4.5,72.5C 4.5,71.8333 4.5,71.1667 4.5,70.5C 4.5,69.5 4.5,68.5 4.5,67.5 Z"/></g>
<g><path style="opacity:1" fill="#8b0000" d="M 28.5,80.5 C 30.8568,80.3367 33.1902,80.5034 35.5,81C 62.4143,87.9788 89.4143,94.4788 116.5,100.5C 116.167,103.167 115.833,105.833 115.5,108.5C 114.833,108.5 114.5,108.833 114.5,109.5C 87.3744,99.958 60.0411,91.1246 32.5,83C 30.9336,82.3918 29.6002,81.5585 28.5,80.5 Z"/></g>
<g><path style="opacity:1" fill="#a6a1a7" d="M 124.5,75.5 C 123.845,79.3547 125.179,82.1881 128.5,84C 154.988,91.6221 181.654,98.6221 208.5,105C 225.482,106.512 240.482,102.012 253.5,91.5C 254.797,93.9732 254.797,96.3066 253.5,98.5C 239.996,107.707 224.996,111.54 208.5,110C 181.075,103.381 153.742,96.3813 126.5,89C 124.93,87.6032 123.596,86.1032 122.5,84.5C 122.5,83.5 122.5,82.5 122.5,81.5C 122.875,79.3024 123.542,77.3024 124.5,75.5 Z"/></g>
<g><path style="opacity:1" fill="#bdb9c0" d="M 127.5,62.5 C 127.568,66.5552 129.234,69.7219 132.5,72C 130.893,71.9813 129.226,71.8146 127.5,71.5C 127.286,73.1439 127.62,74.6439 128.5,76C 154.864,81.8409 181.197,87.8409 207.5,94C 218.179,95.3533 228.512,94.02 238.5,90C 243.914,87.6996 247.914,83.8662 250.5,78.5C 251.808,77.3744 253.142,77.3744 254.5,78.5C 254.328,79.4916 254.662,80.1583 255.5,80.5C 255.5,81.8333 255.5,83.1667 255.5,84.5C 254.85,84.1961 254.183,83.8627 253.5,83.5C 252.289,85.4219 250.956,87.2552 249.5,89C 236.652,97.045 222.652,100.378 207.5,99C 181.717,93.1376 156.05,86.8043 130.5,80C 127.242,77.7632 125.575,74.5966 125.5,70.5C 125.517,68.4352 125.85,66.4352 126.5,64.5C 126.328,63.5084 126.662,62.8417 127.5,62.5 Z"/></g>
<g><path style="opacity:1" fill="#9e989e" d="M 122.5,84.5 C 123.596,86.1032 124.93,87.6032 126.5,89C 153.742,96.3813 181.075,103.381 208.5,110C 224.996,111.54 239.996,107.707 253.5,98.5C 253.784,100.415 253.451,102.081 252.5,103.5C 252.649,102.448 252.483,101.448 252,100.5C 243.298,108.926 232.798,113.092 220.5,113C 215.833,113.667 211.167,113.667 206.5,113C 179.303,106.784 152.303,99.7839 125.5,92C 124.627,90.955 123.627,90.1217 122.5,89.5C 122.5,87.8333 122.5,86.1667 122.5,84.5 Z"/></g>
<g><path style="opacity:1" fill="#938e93" d="M 122.5,89.5 C 123.627,90.1217 124.627,90.955 125.5,92C 152.303,99.7839 179.303,106.784 206.5,113C 211.167,113.667 215.833,113.667 220.5,113C 232.798,113.092 243.298,108.926 252,100.5C 252.483,101.448 252.649,102.448 252.5,103.5C 252.5,104.833 252.5,106.167 252.5,107.5C 252.5,108.167 252.5,108.833 252.5,109.5C 251.662,109.842 251.328,110.508 251.5,111.5C 251.167,111.5 250.833,111.5 250.5,111.5C 250.649,110.448 250.483,109.448 250,108.5C 236.393,116.944 221.559,120.777 205.5,120C 178.381,113.47 151.381,106.47 124.5,99C 121.438,96.3201 120.772,93.1535 122.5,89.5 Z"/></g>
<g><path style="opacity:0.012" fill="#8a5158" d="M 27.5,93.5 C 27.5,93.8333 27.5,94.1667 27.5,94.5C 24.8333,94.1667 24.8333,93.8333 27.5,93.5 Z"/></g>
<g><path style="opacity:0.996" fill="#802325" d="M 8.5,74.5 C 9.60895,74.5569 10.609,74.8902 11.5,75.5C 16.5429,81.0425 22.5429,85.2092 29.5,88C 57.1608,97.0505 85.1608,105.217 113.5,112.5C 112.903,113.139 112.07,113.472 111,113.5C 101.543,111.845 92.376,109.345 83.5,106C 80.854,105.503 78.1873,105.336 75.5,105.5C 72.3943,103.732 69.0609,102.232 65.5,101C 50.7003,98.1187 36.367,93.952 22.5,88.5C 21.1249,85.4529 18.7916,84.1196 15.5,84.5C 13.1919,81.1847 10.8586,77.8514 8.5,74.5 Z"/></g>
<g><path style="opacity:0.012" fill="#8c575d" d="M 27.5,94.5 C 28.2389,94.369 28.9056,94.5357 29.5,95C 28.5632,95.6917 27.8966,95.525 27.5,94.5 Z"/></g>
<g><path style="opacity:1" fill="#8c868b" d="M 122.5,81.5 C 122.5,82.5 122.5,83.5 122.5,84.5C 122.5,86.1667 122.5,87.8333 122.5,89.5C 120.772,93.1535 121.438,96.3201 124.5,99C 151.381,106.47 178.381,113.47 205.5,120C 221.559,120.777 236.393,116.944 250,108.5C 250.483,109.448 250.649,110.448 250.5,111.5C 250.5,112.167 250.5,112.833 250.5,113.5C 249.833,113.833 249.167,114.167 248.5,114.5C 248.631,113.761 248.464,113.094 248,112.5C 233.418,121.436 217.585,124.936 200.5,123C 174.785,116.488 149.119,109.821 123.5,103C 122.667,102.167 121.833,101.333 121,100.5C 120.501,96.8484 120.335,93.1817 120.5,89.5C 120.674,87.139 121.007,84.8056 121.5,82.5C 121.5,81.8333 121.833,81.5 122.5,81.5 Z"/></g>
<g><path style="opacity:0.012" fill="#8b575c" d="M 36.5,96.5 C 35.7494,97.5735 34.7494,97.7401 33.5,97C 34.448,96.5172 35.448,96.3505 36.5,96.5 Z"/></g>
<g><path style="opacity:1" fill="#8a5156" d="M 15.5,84.5 C 18.7916,84.1196 21.1249,85.4529 22.5,88.5C 36.367,93.952 50.7003,98.1187 65.5,101C 69.0609,102.232 72.3943,103.732 75.5,105.5C 72.8333,105.167 70.1667,104.833 67.5,104.5C 66.4324,103.566 65.099,103.232 63.5,103.5C 62.4324,102.566 61.099,102.232 59.5,102.5C 57.4855,101.076 55.1522,100.41 52.5,100.5C 50.0948,99.2318 47.4282,98.5651 44.5,98.5C 43.4324,97.5655 42.099,97.2322 40.5,97.5C 39.4324,96.5655 38.099,96.2322 36.5,96.5C 33.7846,94.9281 30.7846,93.9281 27.5,93.5C 22.9343,91.2695 18.9343,88.2695 15.5,84.5 Z"/></g>
<g><path style="opacity:0.012" fill="#895358" d="M 40.5,97.5 C 39.7494,98.5735 38.7494,98.7401 37.5,98C 38.448,97.5172 39.448,97.3505 40.5,97.5 Z"/></g>
<g><path style="opacity:0.01" fill="#875257" d="M 44.5,98.5 C 43.7494,99.5735 42.7494,99.7401 41.5,99C 42.448,98.5172 43.448,98.3505 44.5,98.5 Z"/></g>
<g><path style="opacity:0.012" fill="#8a565b" d="M 52.5,100.5 C 52.5,100.833 52.5,101.167 52.5,101.5C 47.1667,101.167 47.1667,100.833 52.5,100.5 Z"/></g>
<g><path style="opacity:0.999" fill="#847e84" d="M 119.5,89.5 C 119.833,89.5 120.167,89.5 120.5,89.5C 120.335,93.1817 120.501,96.8484 121,100.5C 121.833,101.333 122.667,102.167 123.5,103C 149.119,109.821 174.785,116.488 200.5,123C 217.585,124.936 233.418,121.436 248,112.5C 248.464,113.094 248.631,113.761 248.5,114.5C 248.5,115.167 248.5,115.833 248.5,116.5C 247.094,116.973 246.427,117.973 246.5,119.5C 245.833,119.5 245.5,119.833 245.5,120.5C 244.833,120.5 244.5,120.833 244.5,121.5C 243.833,121.5 243.5,121.833 243.5,122.5C 242.833,122.5 242.5,122.833 242.5,123.5C 241.833,123.5 241.5,123.833 241.5,124.5C 240.833,124.5 240.5,124.833 240.5,125.5C 239.833,125.5 239.5,125.833 239.5,126.5C 238.833,126.5 238.5,126.833 238.5,127.5C 237.508,127.328 236.842,127.662 236.5,128.5C 235.833,128.5 235.5,128.833 235.5,129.5C 234.508,129.328 233.842,129.662 233.5,130.5C 233.167,130.5 232.833,130.5 232.5,130.5C 231.226,129.811 231.226,128.977 232.5,128C 229.167,127.886 225.834,128.219 222.5,129C 215.167,129.667 207.833,129.667 200.5,129C 173.094,122.524 145.928,115.358 119,107.5C 118.502,104.183 118.335,100.85 118.5,97.5C 118.5,96.5 118.5,95.5 118.5,94.5C 119.301,92.9582 119.634,91.2915 119.5,89.5 Z"/></g>
<g><path style="opacity:0.012" fill="#8a585f" d="M 52.5,101.5 C 53.552,101.351 54.552,101.517 55.5,102C 54.2506,102.74 53.2506,102.573 52.5,101.5 Z"/></g>
<g><path style="opacity:0.008" fill="#875258" d="M 59.5,102.5 C 58.7494,103.573 57.7494,103.74 56.5,103C 57.448,102.517 58.448,102.351 59.5,102.5 Z"/></g>
<g><path style="opacity:1" fill="#830c0d" d="M 7.5,67.5 C 9.95102,69.1226 11.951,71.2893 13.5,74C 16.2538,74.2724 18.9205,74.7724 21.5,75.5C 23.2964,77.9 25.6298,79.5667 28.5,80.5C 29.6002,81.5585 30.9336,82.3918 32.5,83C 60.0411,91.1246 87.3744,99.958 114.5,109.5C 114.443,110.609 114.11,111.609 113.5,112.5C 85.1608,105.217 57.1608,97.0505 29.5,88C 22.5429,85.2092 16.5429,81.0425 11.5,75.5C 9.76222,73.0786 8.42889,70.4119 7.5,67.5 Z"/></g>
<g><path style="opacity:0.008" fill="#854c52" d="M 63.5,103.5 C 62.7494,104.573 61.7494,104.74 60.5,104C 61.448,103.517 62.448,103.351 63.5,103.5 Z"/></g>
<g><path style="opacity:0.01" fill="#844b51" d="M 67.5,104.5 C 66.7494,105.573 65.7494,105.74 64.5,105C 65.448,104.517 66.448,104.351 67.5,104.5 Z"/></g>
<g><path style="opacity:0.008" fill="#a8a3a8" d="M 254.5,104.5 C 254.833,104.5 255.167,104.5 255.5,104.5C 255.5,105.167 255.5,105.833 255.5,106.5C 254.662,106.158 254.328,105.492 254.5,104.5 Z"/></g>
<g><path style="opacity:0.008" fill="#854d52" d="M 75.5,106.5 C 75.5,106.833 75.5,107.167 75.5,107.5C 70.1667,107.167 70.1667,106.833 75.5,106.5 Z"/></g>
<g><path style="opacity:0.917" fill="#787178" d="M 118.5,97.5 C 118.335,100.85 118.502,104.183 119,107.5C 145.928,115.358 173.094,122.524 200.5,129C 207.833,129.667 215.167,129.667 222.5,129C 225.834,128.219 229.167,127.886 232.5,128C 231.226,128.977 231.226,129.811 232.5,130.5C 232.5,130.833 232.5,131.167 232.5,131.5C 231.508,131.328 230.842,131.662 230.5,132.5C 229.508,132.328 228.842,132.662 228.5,133.5C 227.209,133.263 226.209,133.596 225.5,134.5C 224.209,134.263 223.209,134.596 222.5,135.5C 220.901,135.232 219.568,135.566 218.5,136.5C 212.5,136.5 206.5,136.5 200.5,136.5C 199.081,135.549 197.415,135.216 195.5,135.5C 193.485,134.076 191.152,133.41 188.5,133.5C 186.095,132.232 183.428,131.565 180.5,131.5C 179.432,130.566 178.099,130.232 176.5,130.5C 175.432,129.566 174.099,129.232 172.5,129.5C 170.485,128.076 168.152,127.41 165.5,127.5C 160.427,125.565 155.094,124.232 149.5,123.5C 146.146,121.742 142.479,120.742 138.5,120.5C 136.095,119.232 133.428,118.565 130.5,118.5C 129.432,117.566 128.099,117.232 126.5,117.5C 125.432,116.566 124.099,116.232 122.5,116.5C 120.021,115.205 117.354,114.205 114.5,113.5C 115.301,111.958 115.634,110.292 115.5,108.5C 115.833,105.833 116.167,103.167 116.5,100.5C 117.167,99.5 117.833,98.5 118.5,97.5 Z"/></g>
<g><path style="opacity:0.008" fill="#88575d" d="M 75.5,107.5 C 76.552,107.351 77.552,107.517 78.5,108C 77.2506,108.74 76.2506,108.573 75.5,107.5 Z"/></g>
<g><path style="opacity:0.012" fill="#844a50" d="M 79.5,109.5 C 80.2506,108.427 81.2506,108.26 82.5,109C 81.552,109.483 80.552,109.649 79.5,109.5 Z"/></g>
<g><path style="opacity:0.004" fill="#a5a0a6" d="M 253.5,107.5 C 254.833,108.167 254.833,108.833 253.5,109.5C 253.5,108.833 253.5,108.167 253.5,107.5 Z"/></g>
<g><path style="opacity:0.012" fill="#814248" d="M 86.5,109.5 C 85.7494,110.573 84.7494,110.74 83.5,110C 84.448,109.517 85.448,109.351 86.5,109.5 Z"/></g>
<g><path style="opacity:0.012" fill="#83484e" d="M 90.5,110.5 C 89.7494,111.573 88.7494,111.74 87.5,111C 88.448,110.517 89.448,110.351 90.5,110.5 Z"/></g>
<g><path style="opacity:0.008" fill="#9a949a" d="M 252.5,109.5 C 252.833,109.5 253.167,109.5 253.5,109.5C 253.672,110.492 253.338,111.158 252.5,111.5C 252.5,110.833 252.5,110.167 252.5,109.5 Z"/></g>
<g><path style="opacity:0.631" fill="#845056" d="M 75.5,106.5 C 75.5,106.167 75.5,105.833 75.5,105.5C 78.1873,105.336 80.854,105.503 83.5,106C 92.376,109.345 101.543,111.845 111,113.5C 112.07,113.472 112.903,113.139 113.5,112.5C 114.11,111.609 114.443,110.609 114.5,109.5C 114.5,108.833 114.833,108.5 115.5,108.5C 115.634,110.292 115.301,111.958 114.5,113.5C 113.448,115.256 111.781,115.923 109.5,115.5C 107.485,114.076 105.152,113.41 102.5,113.5C 98.7607,111.898 94.7607,110.898 90.5,110.5C 89.4324,109.566 88.099,109.232 86.5,109.5C 83.1456,107.742 79.479,106.742 75.5,106.5 Z"/></g>
<g><path style="opacity:0.004" fill="#9a949a" d="M 251.5,111.5 C 251.833,111.5 252.167,111.5 252.5,111.5C 252.672,112.492 252.338,113.158 251.5,113.5C 251.5,112.833 251.5,112.167 251.5,111.5 Z"/></g>
<g><path style="opacity:0.008" fill="#844e54" d="M 102.5,113.5 C 102.5,113.833 102.5,114.167 102.5,114.5C 97.1667,114.167 97.1667,113.833 102.5,113.5 Z"/></g>
<g><path style="opacity:0.012" fill="#8c878c" d="M 250.5,113.5 C 250.833,113.5 251.167,113.5 251.5,113.5C 251.315,114.17 250.981,114.17 250.5,113.5 Z"/></g>
<g><path style="opacity:0.012" fill="#86545b" d="M 102.5,114.5 C 103.552,114.351 104.552,114.517 105.5,115C 104.251,115.74 103.251,115.573 102.5,114.5 Z"/></g>
<g><path style="opacity:0.012" fill="#87585e" d="M 109.5,115.5 C 108.749,116.573 107.749,116.74 106.5,116C 107.448,115.517 108.448,115.351 109.5,115.5 Z"/></g>
<g><path style="opacity:0.006" fill="#756e75" d="M 115.5,116.5 C 116.251,115.427 117.251,115.26 118.5,116C 117.552,116.483 116.552,116.649 115.5,116.5 Z"/></g>
<g><path style="opacity:0.012" fill="#9a959a" d="M 249.5,115.5 C 250.833,116.167 250.833,116.167 249.5,115.5 Z"/></g>
<g><path style="opacity:0.012" fill="#85565d" d="M 110.5,117.5 C 111.251,116.427 112.251,116.26 113.5,117C 112.552,117.483 111.552,117.649 110.5,117.5 Z"/></g>
<g><path style="opacity:0.009" fill="#797279" d="M 122.5,116.5 C 121.749,117.573 120.749,117.74 119.5,117C 120.448,116.517 121.448,116.351 122.5,116.5 Z"/></g>
<g><path style="opacity:0.016" fill="#878287" d="M 248.5,116.5 C 248.833,116.5 249.167,116.5 249.5,116.5C 249.315,117.17 248.981,117.17 248.5,116.5 Z"/></g>
<g><path style="opacity:0.008" fill="#7b757c" d="M 126.5,117.5 C 125.749,118.573 124.749,118.74 123.5,118C 124.448,117.517 125.448,117.351 126.5,117.5 Z"/></g>
<g><path style="opacity:0.01" fill="#7a737a" d="M 130.5,118.5 C 129.749,119.573 128.749,119.74 127.5,119C 128.448,118.517 129.448,118.351 130.5,118.5 Z"/></g>
<g><path style="opacity:0.008" fill="#8d888d" d="M 247.5,118.5 C 248.833,119.167 248.833,119.167 247.5,118.5 Z"/></g>
<g><path style="opacity:0.012" fill="#888388" d="M 246.5,119.5 C 246.833,119.5 247.167,119.5 247.5,119.5C 247.315,120.17 246.981,120.17 246.5,119.5 Z"/></g>
<g><path style="opacity:0.008" fill="#787279" d="M 138.5,120.5 C 138.5,120.833 138.5,121.167 138.5,121.5C 133.167,121.167 133.167,120.833 138.5,120.5 Z"/></g>
<g><path style="opacity:0.016" fill="#837e83" d="M 245.5,120.5 C 245.833,120.5 246.167,120.5 246.5,120.5C 246.315,121.17 245.981,121.17 245.5,120.5 Z"/></g>
<g><path style="opacity:0.009" fill="#7a747b" d="M 138.5,121.5 C 139.552,121.351 140.552,121.517 141.5,122C 140.251,122.74 139.251,122.573 138.5,121.5 Z"/></g>
<g><path style="opacity:0.016" fill="#7f7a7f" d="M 244.5,121.5 C 244.833,121.5 245.167,121.5 245.5,121.5C 245.315,122.17 244.981,122.17 244.5,121.5 Z"/></g>
<g><path style="opacity:0.009" fill="#79737a" d="M 142.5,123.5 C 143.251,122.427 144.251,122.26 145.5,123C 144.552,123.483 143.552,123.649 142.5,123.5 Z"/></g>
<g><path style="opacity:0.012" fill="#7d797d" d="M 243.5,122.5 C 243.833,122.5 244.167,122.5 244.5,122.5C 244.315,123.17 243.981,123.17 243.5,122.5 Z"/></g>
<g><path style="opacity:0.01" fill="#7b767c" d="M 149.5,123.5 C 148.749,124.573 147.749,124.74 146.5,124C 147.448,123.517 148.448,123.351 149.5,123.5 Z"/></g>
<g><path style="opacity:0.012" fill="#7a757a" d="M 242.5,123.5 C 242.833,123.5 243.167,123.5 243.5,123.5C 243.315,124.17 242.981,124.17 242.5,123.5 Z"/></g>
<g><path style="opacity:0.012" fill="#7c787d" d="M 241.5,124.5 C 241.833,124.5 242.167,124.5 242.5,124.5C 242.315,125.17 241.981,125.17 241.5,124.5 Z"/></g>
<g><path style="opacity:0.016" fill="#817c81" d="M 240.5,125.5 C 240.833,125.5 241.167,125.5 241.5,125.5C 241.315,126.17 240.981,126.17 240.5,125.5 Z"/></g>
<g><path style="opacity:0.016" fill="#827d82" d="M 239.5,126.5 C 239.833,126.5 240.167,126.5 240.5,126.5C 240.315,127.17 239.981,127.17 239.5,126.5 Z"/></g>
<g><path style="opacity:0.012" fill="#777178" d="M 165.5,127.5 C 165.5,127.833 165.5,128.167 165.5,128.5C 160.167,128.167 160.167,127.833 165.5,127.5 Z"/></g>
<g><path style="opacity:0.012" fill="#817b81" d="M 238.5,127.5 C 238.833,127.5 239.167,127.5 239.5,127.5C 239.315,128.17 238.981,128.17 238.5,127.5 Z"/></g>
<g><path style="opacity:0.009" fill="#787179" d="M 165.5,128.5 C 166.552,128.351 167.552,128.517 168.5,129C 167.251,129.74 166.251,129.573 165.5,128.5 Z"/></g>
<g><path style="opacity:0.006" fill="#807a81" d="M 236.5,129.5 C 236.5,129.167 236.5,128.833 236.5,128.5C 237.167,128.5 237.833,128.5 238.5,128.5C 238.158,129.338 237.492,129.672 236.5,129.5 Z"/></g>
<g><path style="opacity:0.009" fill="#787279" d="M 172.5,129.5 C 171.749,130.573 170.749,130.74 169.5,130C 170.448,129.517 171.448,129.351 172.5,129.5 Z"/></g>
<g><path style="opacity:0.016" fill="#7e797e" d="M 235.5,129.5 C 235.833,129.5 236.167,129.5 236.5,129.5C 236.315,130.17 235.981,130.17 235.5,129.5 Z"/></g>
<g><path style="opacity:0.008" fill="#777278" d="M 176.5,130.5 C 175.749,131.573 174.749,131.74 173.5,131C 174.448,130.517 175.448,130.351 176.5,130.5 Z"/></g>
<g><path style="opacity:0.008" fill="#7f797f" d="M 233.5,131.5 C 233.5,131.167 233.5,130.833 233.5,130.5C 234.167,130.5 234.833,130.5 235.5,130.5C 235.158,131.338 234.492,131.672 233.5,131.5 Z"/></g>
<g><path style="opacity:0.01" fill="#777178" d="M 180.5,131.5 C 179.749,132.573 178.749,132.74 177.5,132C 178.448,131.517 179.448,131.351 180.5,131.5 Z"/></g>
<g><path style="opacity:0.012" fill="#7d787e" d="M 232.5,131.5 C 232.833,131.5 233.167,131.5 233.5,131.5C 233.315,132.17 232.981,132.17 232.5,131.5 Z"/></g>
<g><path style="opacity:0.012" fill="#7c777d" d="M 230.5,132.5 C 231.833,133.167 231.833,133.167 230.5,132.5 Z"/></g>
<g><path style="opacity:0.006" fill="#767077" d="M 188.5,133.5 C 188.5,133.833 188.5,134.167 188.5,134.5C 183.167,134.167 183.167,133.833 188.5,133.5 Z"/></g>
<g><path style="opacity:0.004" fill="#79737a" d="M 228.5,133.5 C 229.167,133.5 229.833,133.5 230.5,133.5C 229.833,134.833 229.167,134.833 228.5,133.5 Z"/></g>
<g><path style="opacity:0.009" fill="#777178" d="M 188.5,134.5 C 189.552,134.351 190.552,134.517 191.5,135C 190.251,135.74 189.251,135.573 188.5,134.5 Z"/></g>
<g><path style="opacity:0.012" fill="#7a757b" d="M 225.5,135.5 C 225.5,135.167 225.5,134.833 225.5,134.5C 228.167,134.833 228.167,135.167 225.5,135.5 Z"/></g>
<g><path style="opacity:0.012" fill="#777078" d="M 192.5,136.5 C 193.209,135.596 194.209,135.263 195.5,135.5C 195.5,135.833 195.5,136.167 195.5,136.5C 194.5,136.5 193.5,136.5 192.5,136.5 Z"/></g>
<g><path style="opacity:0.008" fill="#79737a" d="M 222.5,136.5 C 222.5,136.167 222.5,135.833 222.5,135.5C 223.5,135.5 224.5,135.5 225.5,135.5C 225.5,135.833 225.5,136.167 225.5,136.5C 224.5,136.5 223.5,136.5 222.5,136.5 Z"/></g>
</svg>
