<?xml version="1.0" encoding="UTF-8"?>
<!DOCTYPE svg PUBLIC "-//W3C//DTD SVG 1.1//EN" "http://www.w3.org/Graphics/SVG/1.1/DTD/svg11.dtd">
<svg xmlns="http://www.w3.org/2000/svg" version="1.1" width="500px" height="500px" style="shape-rendering:geometricPrecision; text-rendering:geometricPrecision; image-rendering:optimizeQuality; fill-rule:evenodd; clip-rule:evenodd" xmlns:xlink="http://www.w3.org/1999/xlink">
<g><path style="opacity:0.999" fill="#c4302d" d="M 264.5,181.5 C 265.497,199.993 265.83,218.659 265.5,237.5C 265.832,250.517 265.499,263.517 264.5,276.5C 257.963,278.637 251.297,279.804 244.5,280C 235.091,262.681 226.091,245.181 217.5,227.5C 217.179,225.952 216.179,225.285 214.5,225.5C 214.5,233.167 214.5,240.833 214.5,248.5C 214.703,261.528 214.203,274.528 213,287.5C 206.541,289.227 200.041,290.893 193.5,292.5C 179.304,264.107 165.637,235.44 152.5,206.5C 157.547,204.238 162.88,202.905 168.5,202.5C 169.609,202.557 170.609,202.89 171.5,203.5C 180.403,222.312 189.07,241.312 197.5,260.5C 197.711,262.424 198.377,262.757 199.5,261.5C 199.905,239.158 200.572,216.824 201.5,194.5C 206.371,193.741 211.205,192.741 216,191.5C 216.772,191.645 217.439,191.978 218,192.5C 228.196,212.228 238.363,231.895 248.5,251.5C 249.177,229.265 249.843,206.931 250.5,184.5C 255.03,182.994 259.697,181.994 264.5,181.5 Z"/></g>
<g><path style="opacity:0.511" fill="#e29899" d="M 309.5,186.5 C 296.167,186.5 282.833,186.5 269.5,186.5C 269.5,217.167 269.5,247.833 269.5,278.5C 268.502,247.671 268.169,216.671 268.5,185.5C 282.344,185.171 296.01,185.504 309.5,186.5 Z"/></g>
<g><path style="opacity:0.999" fill="#c22a29" d="M 309.5,186.5 C 321.602,186.968 331.769,191.635 340,200.5C 340.464,201.094 340.631,201.761 340.5,202.5C 340.427,204.027 341.094,205.027 342.5,205.5C 344.293,207.426 345.293,209.759 345.5,212.5C 345.41,215.152 346.076,217.485 347.5,219.5C 350.148,234.083 348.315,248.083 342,261.5C 335.121,270.693 325.954,276.193 314.5,278C 299.504,278.5 284.504,278.667 269.5,278.5C 269.5,247.833 269.5,217.167 269.5,186.5C 282.833,186.5 296.167,186.5 309.5,186.5 Z M 308.5,202.5 C 315.156,203.822 320.489,207.156 324.5,212.5C 324.932,213.71 325.599,214.71 326.5,215.5C 330.163,227.565 329.83,239.565 325.5,251.5C 324.094,251.973 323.427,252.973 323.5,254.5C 318.503,259.282 312.503,261.949 305.5,262.5C 299.5,262.5 293.5,262.5 287.5,262.5C 287.5,242.5 287.5,222.5 287.5,202.5C 294.5,202.5 301.5,202.5 308.5,202.5 Z"/></g>
<g><path style="opacity:0.271" fill="#f0c8c8" d="M 168.5,202.5 C 169.947,201.115 170.947,201.448 171.5,203.5C 170.609,202.89 169.609,202.557 168.5,202.5 Z"/></g>
<g><path style="opacity:0.738" fill="#dd7e7c" d="M 308.5,202.5 C 301.5,202.5 294.5,202.5 287.5,202.5C 287.5,222.5 287.5,242.5 287.5,262.5C 293.5,262.5 299.5,262.5 305.5,262.5C 299.355,263.49 293.022,263.823 286.5,263.5C 286.5,242.833 286.5,222.167 286.5,201.5C 294.019,201.175 301.352,201.508 308.5,202.5 Z"/></g>
<g><path style="opacity:0.557" fill="#e3928f" d="M 340.5,202.5 C 341.906,202.973 342.573,203.973 342.5,205.5C 341.094,205.027 340.427,204.027 340.5,202.5 Z"/></g>
<g><path style="opacity:0.914" fill="#e8968f" d="M 324.5,212.5 C 326.048,212.821 326.715,213.821 326.5,215.5C 325.599,214.71 324.932,213.71 324.5,212.5 Z"/></g>
<g><path style="opacity:0.229" fill="#eec0c0" d="M 264.5,181.5 C 264.56,180.957 264.893,180.624 265.5,180.5C 266.828,199.662 266.828,218.662 265.5,237.5C 265.83,218.659 265.497,199.993 264.5,181.5 Z"/></g>
<g><path style="opacity:0.608" fill="#e28e8b" d="M 345.5,212.5 C 346.924,214.515 347.59,216.848 347.5,219.5C 346.076,217.485 345.41,215.152 345.5,212.5 Z"/></g>
<g><path style="opacity:0.357" fill="#e69e9d" d="M 217.5,227.5 C 216.883,227.389 216.383,227.056 216,226.5C 215.829,234.011 215.329,241.345 214.5,248.5C 214.5,240.833 214.5,233.167 214.5,225.5C 216.179,225.285 217.179,225.952 217.5,227.5 Z"/></g>
<g><path style="opacity:0.478" fill="#de8c8d" d="M 250.5,184.5 C 249.843,206.931 249.177,229.265 248.5,251.5C 247.844,228.808 248.511,206.475 250.5,184.5 Z"/></g>
<g><path style="opacity:0.463" fill="#e9a4a2" d="M 325.5,251.5 C 325.573,253.027 324.906,254.027 323.5,254.5C 323.427,252.973 324.094,251.973 325.5,251.5 Z"/></g>
<g><path style="opacity:0.294" fill="#f3d5d5" d="M 197.5,260.5 C 198.167,260.833 198.833,261.167 199.5,261.5C 198.377,262.757 197.711,262.424 197.5,260.5 Z"/></g>
</svg>
